<svg width="25" height="25" viewBox="0 0 25 25" fill="none" xmlns="http://www.w3.org/2000/svg">
<path d="M12.5 25C5.59625 25 0 19.4037 0 12.5C0 5.59625 5.59625 0 12.5 0C19.4037 0 25 5.59625 25 12.5C25 19.4037 19.4037 25 12.5 25ZM12.5 22.5C15.1522 22.5 17.6957 21.4464 19.5711 19.5711C21.4464 17.6957 22.5 15.1522 22.5 12.5C22.5 9.84783 21.4464 7.3043 19.5711 5.42893C17.6957 3.55357 15.1522 2.5 12.5 2.5C9.84783 2.5 7.3043 3.55357 5.42893 5.42893C3.55357 7.3043 2.5 9.84783 2.5 12.5C2.5 15.1522 3.55357 17.6957 5.42893 19.5711C7.3043 21.4464 9.84783 22.5 12.5 22.5ZM14.785 12.5L10.3663 8.08C10.1386 7.84425 10.0126 7.52849 10.0154 7.20075C10.0183 6.873 10.1497 6.55949 10.3815 6.32773C10.6132 6.09597 10.9268 5.96451 11.2545 5.96166C11.5822 5.95881 11.898 6.0848 12.1337 6.3125L17.4375 11.6163C17.6718 11.8507 17.8035 12.1685 17.8035 12.5C17.8035 12.8315 17.6718 13.1493 17.4375 13.3837L12.1337 18.6875C12.0184 18.8069 11.8805 18.9021 11.728 18.9676C11.5755 19.0331 11.4115 19.0676 11.2455 19.0691C11.0795 19.0705 10.9149 19.0389 10.7613 18.976C10.6077 18.9132 10.4681 18.8204 10.3508 18.703C10.2334 18.5856 10.1406 18.4461 10.0777 18.2924C10.0149 18.1388 9.98324 17.9742 9.98469 17.8082C9.98613 17.6423 10.0206 17.4783 10.0861 17.3257C10.1516 17.1732 10.2469 17.0353 10.3663 16.92L14.785 12.5Z" fill="white"/>
</svg>
