<svg width="31" height="31" viewBox="0 0 31 31" fill="none" xmlns="http://www.w3.org/2000/svg">
<path d="M17.8042 12.5692C18.2566 13.0906 19.0461 13.1466 19.5675 12.6941C20.089 12.2417 20.1449 11.4522 19.6924 10.9308L17.8042 12.5692ZM13.1958 18.4308C12.7434 17.9094 11.9539 17.8534 11.4325 18.3059C10.9111 18.7583 10.8551 19.5478 11.3076 20.0692L13.1958 18.4308ZM16.75 9.25C16.75 8.55964 16.1904 8 15.5 8C14.8096 8 14.25 8.55964 14.25 9.25H16.75ZM14.25 21.75C14.25 22.4403 14.8096 23 15.5 23C16.1903 23 16.75 22.4404 16.75 21.75L14.25 21.75ZM25.5 15.5C25.5 21.0228 21.0228 25.5 15.5 25.5V28C22.4036 28 28 22.4036 28 15.5H25.5ZM15.5 25.5C9.97715 25.5 5.5 21.0228 5.5 15.5H3C3 22.4036 8.59644 28 15.5 28V25.5ZM5.5 15.5C5.5 9.97715 9.97715 5.5 15.5 5.5V3C8.59644 3 3 8.59644 3 15.5H5.5ZM15.5 5.5C21.0228 5.5 25.5 9.97715 25.5 15.5H28C28 8.59644 22.4036 3 15.5 3V5.5ZM15.5 14.25C14.6768 14.25 13.9881 14.0253 13.5417 13.7277C13.0866 13.4243 13 13.1424 13 13H10.5C10.5 14.2383 11.2529 15.2064 12.155 15.8078C13.0658 16.4151 14.2521 16.75 15.5 16.75V14.25ZM13 13C13 12.8576 13.0866 12.5757 13.5417 12.2723C13.9881 11.9747 14.6768 11.75 15.5 11.75V9.25C14.2521 9.25 13.0658 9.58495 12.155 10.1922C11.2529 10.7936 10.5 11.7617 10.5 13H13ZM15.5 11.75C16.6297 11.75 17.4538 12.1654 17.8042 12.5692L19.6924 10.9308C18.7461 9.84011 17.1463 9.25 15.5 9.25V11.75ZM15.5 16.75C16.3232 16.75 17.0119 16.9747 17.4583 17.2723C17.9134 17.5757 18 17.8576 18 18H20.5C20.5 16.7617 19.7471 15.7936 18.845 15.1922C17.9342 14.5849 16.7479 14.25 15.5 14.25V16.75ZM14.25 9.25V10.5H16.75V9.25H14.25ZM14.25 20.5L14.25 21.75L16.75 21.75L16.75 20.5L14.25 20.5ZM15.5 19.25C14.3703 19.25 13.5462 18.8346 13.1958 18.4308L11.3076 20.0692C12.254 21.1599 13.8537 21.75 15.5 21.75L15.5 19.25ZM18 18C18 18.1424 17.9134 18.4243 17.4583 18.7277C17.0119 19.0253 16.3232 19.25 15.5 19.25V21.75C16.7479 21.75 17.9342 21.4151 18.8451 20.8078C19.7471 20.2064 20.5 19.2383 20.5 18H18ZM14.25 10.5L14.25 20.5L16.75 20.5L16.75 10.5L14.25 10.5Z" fill="white"/>
</svg>
