<svg width="170" height="46" viewBox="0 0 170 46" fill="none" xmlns="http://www.w3.org/2000/svg">
<path opacity="0.01" fill-rule="evenodd" clip-rule="evenodd" d="M105.311 0.0123963C105.61 -0.0261699 105.883 0.0252517 106.134 0.166661C105.997 0.183836 105.86 0.200908 105.723 0.218083C105.535 0.209341 105.397 0.140745 105.311 0.0123963Z" fill="black"/>
<path opacity="0.01" fill-rule="evenodd" clip-rule="evenodd" d="M160.847 0.218082C160.778 0.0809924 160.778 0.0809924 160.847 0.218082Z" fill="black"/>
<path opacity="0.01" fill-rule="evenodd" clip-rule="evenodd" d="M161.772 0.115234C161.909 0.183831 161.909 0.183831 161.772 0.115234Z" fill="black"/>
<path opacity="0.01" fill-rule="evenodd" clip-rule="evenodd" d="M104.489 0.423756C104.697 0.260441 104.937 0.209019 105.209 0.269491C104.984 0.393108 104.745 0.44453 104.489 0.423756Z" fill="black"/>
<path opacity="0.01" fill-rule="evenodd" clip-rule="evenodd" d="M160.847 0.218079C160.983 0.286675 160.983 0.286675 160.847 0.218079Z" fill="black"/>
<path opacity="0.01" fill-rule="evenodd" clip-rule="evenodd" d="M162.492 0.218079C162.629 0.286675 162.629 0.286675 162.492 0.218079Z" fill="black"/>
<path opacity="0.01" fill-rule="evenodd" clip-rule="evenodd" d="M104.489 0.423757C104.46 0.5049 104.408 0.573497 104.334 0.629443C104.187 0.556219 104.033 0.539044 103.872 0.578022C104.069 0.401954 104.275 0.350533 104.489 0.423757Z" fill="black"/>
<path opacity="0.01" fill-rule="evenodd" clip-rule="evenodd" d="M161.052 0.320923C161.189 0.389519 161.189 0.389519 161.052 0.320923Z" fill="black"/>
<path opacity="0.01" fill-rule="evenodd" clip-rule="evenodd" d="M161.464 0.320923C161.601 0.389519 161.601 0.389519 161.464 0.320923Z" fill="black"/>
<path opacity="0.01" fill-rule="evenodd" clip-rule="evenodd" d="M162.286 0.320923C162.423 0.389519 162.423 0.389519 162.286 0.320923Z" fill="black"/>
<path opacity="0.01" fill-rule="evenodd" clip-rule="evenodd" d="M161.258 0.526611C161.395 0.595208 161.395 0.595208 161.258 0.526611Z" fill="black"/>
<path opacity="0.01" fill-rule="evenodd" clip-rule="evenodd" d="M103.563 0.732305C103.604 0.626891 103.672 0.609716 103.769 0.680884C103.708 0.728603 103.639 0.745778 103.563 0.732305Z" fill="black"/>
<path opacity="0.01" fill-rule="evenodd" clip-rule="evenodd" d="M103.563 0.7323C103.494 0.800896 103.494 0.800896 103.563 0.7323Z" fill="black"/>
<path opacity="0.01" fill-rule="evenodd" clip-rule="evenodd" d="M103.152 0.835144C103.289 0.90374 103.289 0.90374 103.152 0.835144Z" fill="black"/>
<path opacity="0.986" fill-rule="evenodd" clip-rule="evenodd" d="M45.9709 1.04083C50.2444 1.04268 53.5182 2.82526 55.7924 6.38868C56.6029 7.79166 57.0828 9.29996 57.2322 10.9138C57.3542 16.1569 57.3542 21.4019 57.2322 26.6488C57.2084 28.0752 57.1226 29.4986 56.9751 30.9168C57.398 33.2708 57.8608 35.6198 58.3635 37.9615C58.7613 39.7592 58.9327 41.5754 58.8777 43.4122C58.8383 43.8966 58.5983 44.2401 58.1578 44.4406C57.2549 43.8462 56.3807 43.2117 55.5353 42.538C52.9928 41.3019 50.3361 40.3938 47.565 39.8127C45.826 40.4606 44.0605 41.0262 42.2686 41.5096C34.2471 41.6412 26.2253 41.6752 18.2033 41.6125C12.6099 41.4284 7.79348 39.4229 3.7538 35.5961C2.08558 33.8714 0.920061 31.8496 0.257134 29.5284C0.14956 28.503 0.0809633 27.4746 0.0514473 26.4431C-0.0171491 21.7809 -0.0171491 17.1186 0.0514473 12.4564C-0.0276391 7.11999 2.42342 3.50331 7.40473 1.60647C11.7214 0.36433 15.458 1.32417 18.6146 4.48608C25.0595 4.55467 31.5043 4.55467 37.9491 4.48608C38.236 4.46129 38.5103 4.3927 38.7719 4.28039C40.7834 2.33182 43.183 1.25197 45.9709 1.04083ZM9.77013 2.78917C14.1559 2.72736 17.1897 4.71562 18.8717 8.75407C19.9559 13.1481 18.6018 16.5591 14.8094 18.987C11.4501 20.6348 8.26193 20.3606 5.24503 18.1642C4.03528 17.0583 3.10969 15.7556 2.46826 14.2562C2.48317 14.1768 2.51742 14.1082 2.5711 14.0505C5.27876 13.9378 7.98693 13.852 10.6957 13.7934C10.6957 12.2165 10.6957 10.6395 10.6957 9.0626C7.98775 8.99955 5.27958 8.91389 2.5711 8.80549C2.50199 8.42579 2.58766 8.06584 2.82821 7.72564C4.31265 4.90187 6.62662 3.25638 9.77013 2.78917ZM45.6624 2.78917C50.0407 2.69722 53.0917 4.65124 54.8154 8.65123C54.7614 8.72239 54.6928 8.77381 54.6097 8.80549C51.9361 8.91882 49.2622 9.00449 46.588 9.0626C46.588 10.6395 46.588 12.2165 46.588 13.7934C49.263 13.8471 51.9369 13.9328 54.6097 14.0505C54.6928 14.0822 54.7614 14.1336 54.8154 14.2048C52.7939 18.7126 49.3315 20.5809 44.4283 19.8097C40.5995 18.6128 38.457 16.0247 38.0006 12.045C37.9121 7.81532 39.8147 4.88429 43.7084 3.25196C44.3655 3.06273 45.0169 2.90846 45.6624 2.78917ZM23.1397 28.3971C26.8765 28.3796 30.6131 28.3971 34.3496 28.4485C36.239 28.4568 38.1244 28.5257 40.006 28.6542C41.7146 29.6323 42.1089 30.9857 41.1887 32.7165C40.6037 33.4806 39.8324 33.9085 38.8747 34.0021C38.6509 34.363 38.4967 34.7569 38.4119 35.1848C37.8603 35.7566 37.1918 35.9448 36.4065 35.7504C35.9517 35.6722 35.6604 35.4151 35.5323 34.9791C35.4811 34.6726 35.4639 34.3641 35.4809 34.0535C30.133 34.071 24.7851 34.0535 19.4374 34.0021C17.0632 34.0617 15.8806 32.913 15.8893 30.5568C16.2418 29.4492 16.9788 28.7807 18.1004 28.5514C19.7978 28.5339 21.4776 28.4825 23.1397 28.3971Z" fill="black"/>
<path opacity="0.937" fill-rule="evenodd" clip-rule="evenodd" d="M159.818 1.55505C159.757 1.69903 159.654 1.80187 159.51 1.86358C159.706 1.93269 159.912 2.06988 160.127 2.27495C160.197 2.23762 160.266 2.20337 160.333 2.17211C160.46 2.35208 160.614 2.52352 160.795 2.68632C160.985 2.54923 161.036 2.56641 160.95 2.73775C161.047 2.78742 161.15 2.80449 161.258 2.78917C161.361 2.91083 161.447 3.04792 161.515 3.20054C161.541 3.08494 161.592 2.9821 161.67 2.89201C161.703 2.90919 161.738 2.92626 161.772 2.94343C161.76 3.07384 161.726 3.21103 161.67 3.3548C161.936 3.40222 162.159 3.31655 162.338 3.0977C162.608 3.43739 162.883 3.78016 163.161 4.12613C163.375 4.40555 163.443 4.71408 163.366 5.05172C163.305 4.8269 163.184 4.80983 163.006 5.00029C163.104 5.31469 163.138 5.64029 163.109 5.9773C161.325 5.94306 159.543 5.9773 157.761 6.08015C157.644 7.03505 157.627 7.99498 157.71 8.95976C157.761 9.01118 157.813 9.0626 157.864 9.11402C159.613 9.16544 161.361 9.18262 163.109 9.16544C163.082 9.97554 162.773 10.6611 162.184 11.2223C160.589 13.1053 158.567 13.7737 156.116 13.2277C153.473 12.2778 151.999 10.4095 151.694 7.6228C151.808 5.81738 152.528 4.30898 153.853 3.0977C154.498 2.70761 155.064 2.29624 155.55 1.86358C155.584 1.93218 155.619 2.00067 155.653 2.06927C155.801 1.9911 155.956 1.92261 156.116 1.86358C156.24 1.78398 156.24 1.69831 156.116 1.60647C156.456 1.47442 156.799 1.33733 157.144 1.1951C157.605 1.17803 158.05 1.16085 158.481 1.14368C158.971 1.17864 159.416 1.31584 159.818 1.55505ZM158.173 1.45221C158.346 1.49252 158.517 1.54394 158.687 1.60647C158.602 1.62365 158.515 1.64072 158.43 1.65789C158.288 1.63897 158.203 1.57037 158.173 1.45221ZM159.51 1.86358C159.392 1.97928 159.289 1.97928 159.201 1.86358C159.32 1.74788 159.422 1.74788 159.51 1.86358ZM162.389 3.71476C162.648 3.78839 162.648 3.89123 162.389 4.02328C162.127 3.9154 162.127 3.81256 162.389 3.71476ZM162.698 4.5375C162.627 4.39887 162.524 4.27885 162.389 4.17755C162.833 4.11451 162.936 4.23452 162.698 4.5375Z" fill="black"/>
<path opacity="0.952" fill-rule="evenodd" clip-rule="evenodd" d="M105.414 1.45219C108.238 1.64945 110.244 3.055 111.431 5.66876C111.621 6.23358 111.724 6.81629 111.739 7.4171C111.763 7.18261 111.849 6.97693 111.996 6.80004C111.927 6.73144 111.859 6.66295 111.791 6.59435C111.87 6.46981 111.956 6.46981 112.048 6.59435C112.033 9.47591 110.713 11.6528 108.088 13.1249C105.744 13.9618 103.619 13.6019 101.712 12.045C100.999 11.3556 100.485 10.55 100.169 9.62822C100.195 9.49185 100.264 9.38901 100.375 9.3197C102.122 9.2367 103.871 9.18528 105.62 9.16543C105.604 8.14348 105.604 7.13212 105.62 6.13156C103.837 6.07715 102.054 6.00856 100.272 5.92587C100.213 5.83403 100.179 5.73119 100.169 5.61734C100.702 4.05989 101.679 2.94568 103.1 2.27494C103.862 1.94666 104.634 1.67248 105.414 1.45219Z" fill="black"/>
<path opacity="0.01" fill-rule="evenodd" clip-rule="evenodd" d="M159.818 1.55504C160.075 1.55617 160.093 1.62477 159.87 1.76072C159.822 1.69964 159.805 1.63104 159.818 1.55504Z" fill="black"/>
<path opacity="0.01" fill-rule="evenodd" clip-rule="evenodd" d="M160.127 1.6579C160.24 1.77113 160.256 1.90822 160.178 2.06927C160.023 1.95985 160.005 1.82276 160.127 1.6579Z" fill="black"/>
<path opacity="0.01" fill-rule="evenodd" clip-rule="evenodd" d="M155.705 1.76074C155.841 1.82934 155.841 1.82934 155.705 1.76074Z" fill="black"/>
<path opacity="0.01" fill-rule="evenodd" clip-rule="evenodd" d="M109.425 1.86357C109.562 1.93217 109.562 1.93217 109.425 1.86357Z" fill="black"/>
<path opacity="0.01" fill-rule="evenodd" clip-rule="evenodd" d="M160.435 1.96642C160.476 1.86101 160.544 1.84383 160.641 1.915C160.58 1.96272 160.511 1.97989 160.435 1.96642Z" fill="black"/>
<path opacity="0.01" fill-rule="evenodd" clip-rule="evenodd" d="M160.333 2.06926C160.469 2.13786 160.469 2.13786 160.333 2.06926Z" fill="black"/>
<path opacity="0.01" fill-rule="evenodd" clip-rule="evenodd" d="M160.847 2.06926C160.983 2.13786 160.983 2.13786 160.847 2.06926Z" fill="black"/>
<path opacity="0.01" fill-rule="evenodd" clip-rule="evenodd" d="M165.063 2.06926C165.2 2.13786 165.2 2.13786 165.063 2.06926Z" fill="black"/>
<path opacity="0.01" fill-rule="evenodd" clip-rule="evenodd" d="M110.145 2.27495C110.282 2.34354 110.282 2.34354 110.145 2.27495Z" fill="black"/>
<path opacity="0.01" fill-rule="evenodd" clip-rule="evenodd" d="M160.641 2.27495C160.778 2.34354 160.778 2.34354 160.641 2.27495Z" fill="black"/>
<path opacity="0.01" fill-rule="evenodd" clip-rule="evenodd" d="M161.052 2.27495C161.189 2.34354 161.189 2.34354 161.052 2.27495Z" fill="black"/>
<path opacity="0.01" fill-rule="evenodd" clip-rule="evenodd" d="M161.258 2.27495C161.395 2.34354 161.395 2.34354 161.258 2.27495Z" fill="black"/>
<path opacity="0.01" fill-rule="evenodd" clip-rule="evenodd" d="M101.609 2.48064C101.746 2.54923 101.746 2.54923 101.609 2.48064Z" fill="black"/>
<path opacity="0.01" fill-rule="evenodd" clip-rule="evenodd" d="M101.095 2.58348C101.232 2.65208 101.232 2.65208 101.095 2.58348Z" fill="black"/>
<path opacity="0.01" fill-rule="evenodd" clip-rule="evenodd" d="M161.258 2.68631C161.395 2.75491 161.395 2.75491 161.258 2.68631Z" fill="black"/>
<path opacity="0.01" fill-rule="evenodd" clip-rule="evenodd" d="M165.269 2.68631C165.406 2.75491 165.406 2.75491 165.269 2.68631Z" fill="black"/>
<path opacity="0.01" fill-rule="evenodd" clip-rule="evenodd" d="M100.889 2.892C100.82 2.75491 100.82 2.75491 100.889 2.892Z" fill="black"/>
<path opacity="0.01" fill-rule="evenodd" clip-rule="evenodd" d="M100.889 2.89201C101.026 2.96061 101.026 2.96061 100.889 2.89201Z" fill="black"/>
<path opacity="0.01" fill-rule="evenodd" clip-rule="evenodd" d="M110.659 2.89201C110.796 2.96061 110.796 2.96061 110.659 2.89201Z" fill="black"/>
<path opacity="0.01" fill-rule="evenodd" clip-rule="evenodd" d="M100.684 3.09769C100.615 2.9606 100.615 2.9606 100.684 3.09769Z" fill="black"/>
<path opacity="0.01" fill-rule="evenodd" clip-rule="evenodd" d="M100.683 3.09769C100.76 3.08422 100.828 3.10139 100.889 3.14911C100.792 3.22028 100.725 3.2031 100.683 3.09769Z" fill="black"/>
<path opacity="0.01" fill-rule="evenodd" clip-rule="evenodd" d="M101.301 3.09769C101.437 3.16628 101.437 3.16628 101.301 3.09769Z" fill="black"/>
<path opacity="0.01" fill-rule="evenodd" clip-rule="evenodd" d="M100.478 3.40622C100.464 3.33022 100.482 3.26162 100.529 3.20053C100.6 3.2969 100.584 3.36539 100.478 3.40622Z" fill="black"/>
<path opacity="0.983" fill-rule="evenodd" clip-rule="evenodd" d="M117.55 10.8109C117.698 10.5962 117.767 10.3563 117.755 10.091C117.583 10.1131 117.48 10.0445 117.447 9.88535C117.558 9.99457 117.661 9.99457 117.755 9.88535C117.776 9.45094 117.741 9.03957 117.653 8.65123C117.747 8.28501 117.747 7.90798 117.653 7.51996C117.789 7.41711 117.789 7.31427 117.653 7.21143C117.658 7.04276 117.658 6.87143 117.653 6.69721C117.768 6.51333 117.785 6.30764 117.704 6.08015C117.637 6.20315 117.586 6.20315 117.55 6.08015C117.604 6.00898 117.672 5.95756 117.755 5.92589C117.626 5.883 117.558 5.79733 117.55 5.66878C117.614 5.68019 117.665 5.71444 117.704 5.77162C117.721 5.6516 117.738 5.53169 117.755 5.41167C117.731 5.08082 117.696 4.75512 117.653 4.43466C117.658 3.96549 117.863 3.60554 118.27 3.35481C120.463 3.28621 122.658 3.28621 124.852 3.35481C125.036 3.43554 125.19 3.55545 125.314 3.71476C125.352 7.6917 125.404 11.6683 125.469 15.6446C126.445 15.4519 127.405 15.1948 128.348 14.8732C131.864 14.2282 135.327 14.4339 138.735 15.4903C143.131 17.1085 145.787 20.2109 146.706 24.7976C146.775 28.1914 146.775 31.5853 146.706 34.9791C146.091 39.064 143.948 42.03 140.278 43.875C136.329 45.5318 132.215 46.081 127.937 45.5205C125.988 45.1688 124.034 44.8253 122.075 44.4921C120.78 44.1774 119.512 43.7824 118.27 43.3094C118.096 43.153 117.942 42.9823 117.807 42.7952C117.789 33.6863 117.738 24.5847 117.653 15.4903C117.711 14.3354 117.746 13.1869 117.755 12.0451C117.754 11.5933 117.685 11.1819 117.55 10.8109ZM130.919 20.6839C132.31 20.6797 133.681 20.8339 135.033 21.1467C137.071 21.7131 138.323 23.0668 138.787 25.209C138.856 28.3282 138.856 31.4485 138.787 34.5677C138.425 36.713 137.208 38.1353 135.136 38.8357C132.226 39.4342 129.313 39.4342 126.394 38.8357C126.085 38.7555 125.793 38.6351 125.52 38.4757C125.451 33.094 125.451 27.7112 125.52 22.3294C126.139 21.9082 126.808 21.5825 127.526 21.3524C128.65 21.0186 129.781 20.7959 130.919 20.6839Z" fill="black"/>
<path opacity="0.01" fill-rule="evenodd" clip-rule="evenodd" d="M100.478 3.40622C100.478 3.44047 100.478 3.47482 100.478 3.50906C100.409 3.4596 100.409 3.42525 100.478 3.40622Z" fill="black"/>
<path opacity="0.01" fill-rule="evenodd" clip-rule="evenodd" d="M100.683 3.71474C100.581 3.6805 100.512 3.6119 100.478 3.50906C100.89 3.33525 100.959 3.40385 100.683 3.71474Z" fill="black"/>
<path opacity="0.01" fill-rule="evenodd" clip-rule="evenodd" d="M110.762 3.40622C110.899 3.47482 110.899 3.47482 110.762 3.40622Z" fill="black"/>
<path opacity="0.01" fill-rule="evenodd" clip-rule="evenodd" d="M100.272 3.81759C100.329 3.59576 100.432 3.61293 100.581 3.86901C100.455 4.05362 100.352 4.03644 100.272 3.81759Z" fill="black"/>
<path opacity="0.01" fill-rule="evenodd" clip-rule="evenodd" d="M100.889 3.61191C101.026 3.6805 101.026 3.6805 100.889 3.61191Z" fill="black"/>
<path opacity="0.01" fill-rule="evenodd" clip-rule="evenodd" d="M100.683 3.71475C100.82 3.78335 100.82 3.78335 100.683 3.71475Z" fill="black"/>
<path opacity="0.01" fill-rule="evenodd" clip-rule="evenodd" d="M111.482 3.71475C111.619 3.78335 111.619 3.78335 111.482 3.71475Z" fill="black"/>
<path opacity="0.01" fill-rule="evenodd" clip-rule="evenodd" d="M100.272 3.8176C100.353 4.04601 100.388 4.2517 100.375 4.43466C100.241 4.84428 100.103 4.84428 99.9636 4.43466C99.9904 4.17888 100.093 3.9732 100.272 3.8176Z" fill="black"/>
<path opacity="0.01" fill-rule="evenodd" clip-rule="evenodd" d="M111.071 3.8176C111.207 3.88619 111.207 3.88619 111.071 3.8176Z" fill="black"/>
<path opacity="0.01" fill-rule="evenodd" clip-rule="evenodd" d="M100.683 3.92044C100.82 3.98904 100.82 3.98904 100.683 3.92044Z" fill="black"/>
<path opacity="0.01" fill-rule="evenodd" clip-rule="evenodd" d="M110.865 3.92044C111.002 3.98904 111.002 3.98904 110.865 3.92044Z" fill="black"/>
<path opacity="0.01" fill-rule="evenodd" clip-rule="evenodd" d="M111.482 3.92044C111.619 3.98904 111.619 3.98904 111.482 3.92044Z" fill="black"/>
<path opacity="0.01" fill-rule="evenodd" clip-rule="evenodd" d="M100.684 4.02327C100.615 4.09187 100.615 4.09187 100.684 4.02327Z" fill="black"/>
<path opacity="0.01" fill-rule="evenodd" clip-rule="evenodd" d="M110.968 4.22897C111.105 4.29757 111.105 4.29757 110.968 4.22897Z" fill="black"/>
<path opacity="0.01" fill-rule="evenodd" clip-rule="evenodd" d="M100.375 4.33182C100.512 4.40041 100.512 4.40041 100.375 4.33182Z" fill="black"/>
<path opacity="0.01" fill-rule="evenodd" clip-rule="evenodd" d="M111.688 4.33182C111.824 4.40041 111.824 4.40041 111.688 4.33182Z" fill="black"/>
<path opacity="0.01" fill-rule="evenodd" clip-rule="evenodd" d="M117.653 4.43464C117.619 4.50324 117.584 4.57173 117.55 4.64033C117.447 4.77742 117.344 4.77742 117.241 4.64033C117.311 4.46797 117.449 4.39937 117.653 4.43464Z" fill="black"/>
<path opacity="0.01" fill-rule="evenodd" clip-rule="evenodd" d="M99.655 4.53749C99.7918 4.60609 99.7918 4.60609 99.655 4.53749Z" fill="black"/>
<path opacity="0.01" fill-rule="evenodd" clip-rule="evenodd" d="M116.933 4.84602C116.976 4.92027 117.044 4.97169 117.138 5.00029C117.048 5.0731 116.979 5.15887 116.933 5.25739C116.831 5.2397 116.762 5.27405 116.727 5.36024C116.611 5.10662 116.593 4.83234 116.676 4.53749C116.715 4.68579 116.8 4.78863 116.933 4.84602Z" fill="black"/>
<path opacity="0.01" fill-rule="evenodd" clip-rule="evenodd" d="M117.241 4.64034C117.206 4.72652 117.137 4.76087 117.035 4.74318C117.026 4.51713 117.095 4.48288 117.241 4.64034Z" fill="black"/>
<path opacity="0.01" fill-rule="evenodd" clip-rule="evenodd" d="M99.6551 4.64034C99.5862 4.70893 99.5862 4.70893 99.6551 4.64034Z" fill="black"/>
<path opacity="0.01" fill-rule="evenodd" clip-rule="evenodd" d="M111.482 4.64034C111.588 4.68116 111.604 4.74966 111.533 4.84602C111.486 4.78493 111.469 4.71634 111.482 4.64034Z" fill="black"/>
<path opacity="0.01" fill-rule="evenodd" clip-rule="evenodd" d="M117.55 4.64034C117.656 4.68116 117.672 4.74966 117.601 4.84602C117.554 4.78493 117.536 4.71634 117.55 4.64034Z" fill="black"/>
<path opacity="0.01" fill-rule="evenodd" clip-rule="evenodd" d="M111.173 4.74319C111.31 4.81179 111.31 4.81179 111.173 4.74319Z" fill="black"/>
<path opacity="0.01" fill-rule="evenodd" clip-rule="evenodd" d="M111.688 4.74319C111.824 4.81179 111.824 4.81179 111.688 4.74319Z" fill="black"/>
<path opacity="0.01" fill-rule="evenodd" clip-rule="evenodd" d="M117.036 4.74319C116.967 4.81179 116.967 4.81179 117.036 4.74319Z" fill="black"/>
<path opacity="0.01" fill-rule="evenodd" clip-rule="evenodd" d="M99.7579 4.84602C99.8947 4.91462 99.8947 4.91462 99.7579 4.84602Z" fill="black"/>
<path opacity="0.01" fill-rule="evenodd" clip-rule="evenodd" d="M99.5522 4.94887C99.689 5.01746 99.689 5.01746 99.5522 4.94887Z" fill="black"/>
<path opacity="0.01" fill-rule="evenodd" clip-rule="evenodd" d="M111.791 4.94887C111.927 5.01746 111.927 5.01746 111.791 4.94887Z" fill="black"/>
<path opacity="0.01" fill-rule="evenodd" clip-rule="evenodd" d="M117.241 5.05171C117.378 5.12031 117.378 5.12031 117.241 5.05171Z" fill="black"/>
<path opacity="0.01" fill-rule="evenodd" clip-rule="evenodd" d="M99.4493 5.25739C99.5861 5.32598 99.5861 5.32598 99.4493 5.25739Z" fill="black"/>
<path opacity="0.01" fill-rule="evenodd" clip-rule="evenodd" d="M111.996 5.25739C112.133 5.32598 112.133 5.32598 111.996 5.25739Z" fill="black"/>
<path opacity="0.01" fill-rule="evenodd" clip-rule="evenodd" d="M116.933 5.25739C117.075 5.33987 117.058 5.40846 116.881 5.46307C116.803 5.45587 116.752 5.42163 116.727 5.36023C116.829 5.37792 116.898 5.34357 116.933 5.25739Z" fill="black"/>
<path opacity="0.01" fill-rule="evenodd" clip-rule="evenodd" d="M117.138 5.36023C117.275 5.42883 117.275 5.42883 117.138 5.36023Z" fill="black"/>
<path opacity="0.01" fill-rule="evenodd" clip-rule="evenodd" d="M116.624 5.56593C116.761 5.63453 116.761 5.63453 116.624 5.56593Z" fill="black"/>
<path opacity="0.01" fill-rule="evenodd" clip-rule="evenodd" d="M117.138 5.77161C116.945 5.78262 116.911 5.7312 117.036 5.61735C117.383 5.55235 117.417 5.60377 117.138 5.77161Z" fill="black"/>
<path opacity="0.01" fill-rule="evenodd" clip-rule="evenodd" d="M117.55 5.66878C117.481 5.53169 117.481 5.53169 117.55 5.66878Z" fill="black"/>
<path opacity="0.01" fill-rule="evenodd" clip-rule="evenodd" d="M116.727 5.77161C116.864 5.8402 116.864 5.8402 116.727 5.77161Z" fill="black"/>
<path opacity="0.01" fill-rule="evenodd" clip-rule="evenodd" d="M117.138 5.77161C117.275 5.8402 117.275 5.8402 117.138 5.77161Z" fill="black"/>
<path opacity="0.01" fill-rule="evenodd" clip-rule="evenodd" d="M116.727 5.87445C116.658 5.94305 116.658 5.94305 116.727 5.87445Z" fill="black"/>
<path opacity="0.01" fill-rule="evenodd" clip-rule="evenodd" d="M116.933 5.87445C117.039 5.91528 117.055 5.98377 116.984 6.08014C116.937 6.01905 116.919 5.95045 116.933 5.87445Z" fill="black"/>
<path opacity="0.01" fill-rule="evenodd" clip-rule="evenodd" d="M117.344 5.87445C117.481 5.94305 117.481 5.94305 117.344 5.87445Z" fill="black"/>
<path opacity="0.01" fill-rule="evenodd" clip-rule="evenodd" d="M111.996 5.97731C112.133 6.04591 112.133 6.04591 111.996 5.97731Z" fill="black"/>
<path opacity="0.01" fill-rule="evenodd" clip-rule="evenodd" d="M117.344 5.97731C117.275 6.04591 117.275 6.04591 117.344 5.97731Z" fill="black"/>
<path opacity="0.01" fill-rule="evenodd" clip-rule="evenodd" d="M116.624 6.49151C116.514 6.41428 116.497 6.31143 116.573 6.18298C116.622 6.28048 116.64 6.38332 116.624 6.49151Z" fill="black"/>
<path opacity="0.01" fill-rule="evenodd" clip-rule="evenodd" d="M117.447 6.38867C117.584 6.45727 117.584 6.45727 117.447 6.38867Z" fill="black"/>
<path opacity="0.01" fill-rule="evenodd" clip-rule="evenodd" d="M116.624 6.49152C116.761 6.56011 116.761 6.56011 116.624 6.49152Z" fill="black"/>
<path opacity="0.01" fill-rule="evenodd" clip-rule="evenodd" d="M105.209 6.59435C105.345 6.66294 105.345 6.66294 105.209 6.59435Z" fill="black"/>
<path opacity="0.01" fill-rule="evenodd" clip-rule="evenodd" d="M116.624 6.59435C116.624 6.62859 116.624 6.66294 116.624 6.69719C116.555 6.64772 116.555 6.61337 116.624 6.59435Z" fill="black"/>
<path opacity="0.01" fill-rule="evenodd" clip-rule="evenodd" d="M117.653 6.69719C117.584 6.5601 117.584 6.5601 117.653 6.69719Z" fill="black"/>
<path opacity="0.01" fill-rule="evenodd" clip-rule="evenodd" d="M116.624 6.6972C116.761 6.7658 116.761 6.7658 116.624 6.6972Z" fill="black"/>
<path opacity="0.01" fill-rule="evenodd" clip-rule="evenodd" d="M117.344 6.6972C117.481 6.7658 117.481 6.7658 117.344 6.6972Z" fill="black"/>
<path opacity="0.01" fill-rule="evenodd" clip-rule="evenodd" d="M117.138 6.80005C117.275 6.86865 117.275 6.86865 117.138 6.80005Z" fill="black"/>
<path opacity="0.01" fill-rule="evenodd" clip-rule="evenodd" d="M105.414 6.90289C105.551 6.97149 105.551 6.97149 105.414 6.90289Z" fill="black"/>
<path opacity="0.01" fill-rule="evenodd" clip-rule="evenodd" d="M116.933 6.90289C117.07 6.97149 117.07 6.97149 116.933 6.90289Z" fill="black"/>
<path opacity="0.01" fill-rule="evenodd" clip-rule="evenodd" d="M116.521 7.10857C116.658 7.17716 116.658 7.17716 116.521 7.10857Z" fill="black"/>
<path opacity="0.01" fill-rule="evenodd" clip-rule="evenodd" d="M116.727 7.10857C116.833 7.1494 116.849 7.21789 116.778 7.31425C116.731 7.25316 116.714 7.18457 116.727 7.10857Z" fill="black"/>
<path opacity="0.01" fill-rule="evenodd" clip-rule="evenodd" d="M117.653 7.21141C117.584 7.07432 117.584 7.07432 117.653 7.21141Z" fill="black"/>
<path opacity="0.01" fill-rule="evenodd" clip-rule="evenodd" d="M105.003 7.21143C105.14 7.28002 105.14 7.28002 105.003 7.21143Z" fill="black"/>
<path opacity="0.01" fill-rule="evenodd" clip-rule="evenodd" d="M117.138 7.31426C117.069 7.17717 117.069 7.17717 117.138 7.31426Z" fill="black"/>
<path opacity="0.01" fill-rule="evenodd" clip-rule="evenodd" d="M117.138 7.31427C117.275 7.38287 117.275 7.38287 117.138 7.31427Z" fill="black"/>
<path opacity="0.01" fill-rule="evenodd" clip-rule="evenodd" d="M116.933 7.41711C117.07 7.48571 117.07 7.48571 116.933 7.41711Z" fill="black"/>
<path opacity="0.01" fill-rule="evenodd" clip-rule="evenodd" d="M117.653 7.51996C117.653 7.65705 117.584 7.72564 117.447 7.72564C117.228 7.64532 117.211 7.54248 117.395 7.41711C117.464 7.49445 117.55 7.5288 117.653 7.51996Z" fill="black"/>
<path opacity="0.01" fill-rule="evenodd" clip-rule="evenodd" d="M116.624 7.62279C116.555 7.4857 116.555 7.4857 116.624 7.62279Z" fill="black"/>
<path opacity="0.01" fill-rule="evenodd" clip-rule="evenodd" d="M116.624 7.72563C116.624 7.69138 116.624 7.65703 116.624 7.62279C116.882 7.63636 116.95 7.73921 116.83 7.93132C116.796 7.93132 116.761 7.93132 116.727 7.93132C116.744 7.8293 116.711 7.7608 116.624 7.72563Z" fill="black"/>
<path opacity="0.01" fill-rule="evenodd" clip-rule="evenodd" d="M117.036 7.62279C117.172 7.69138 117.172 7.69138 117.036 7.62279Z" fill="black"/>
<path opacity="0.01" fill-rule="evenodd" clip-rule="evenodd" d="M116.624 7.72563C116.555 7.79423 116.555 7.79423 116.624 7.72563Z" fill="black"/>
<path opacity="0.01" fill-rule="evenodd" clip-rule="evenodd" d="M117.447 7.72563C117.378 7.79423 117.378 7.79423 117.447 7.72563Z" fill="black"/>
<path opacity="0.01" fill-rule="evenodd" clip-rule="evenodd" d="M117.55 7.82848C117.656 7.8693 117.672 7.9378 117.601 8.03416C117.554 7.97307 117.536 7.90448 117.55 7.82848Z" fill="black"/>
<path opacity="0.01" fill-rule="evenodd" clip-rule="evenodd" d="M116.727 7.93132C116.658 7.99992 116.658 7.99992 116.727 7.93132Z" fill="black"/>
<path opacity="0.01" fill-rule="evenodd" clip-rule="evenodd" d="M116.83 7.93132C116.906 7.91785 116.975 7.93503 117.036 7.98274C116.939 8.05391 116.871 8.03674 116.83 7.93132Z" fill="black"/>
<path opacity="0.01" fill-rule="evenodd" clip-rule="evenodd" d="M117.241 7.93132C117.378 7.99992 117.378 7.99992 117.241 7.93132Z" fill="black"/>
<path opacity="0.01" fill-rule="evenodd" clip-rule="evenodd" d="M117.241 8.03416C117.241 8.06841 117.241 8.10276 117.241 8.13701C117.172 8.08754 117.172 8.05319 117.241 8.03416Z" fill="black"/>
<path opacity="0.01" fill-rule="evenodd" clip-rule="evenodd" d="M116.727 8.23986C116.768 8.13444 116.836 8.11727 116.933 8.18844C116.872 8.23616 116.803 8.25333 116.727 8.23986Z" fill="black"/>
<path opacity="0.01" fill-rule="evenodd" clip-rule="evenodd" d="M117.241 8.13701C117.378 8.20561 117.378 8.20561 117.241 8.13701Z" fill="black"/>
<path opacity="0.01" fill-rule="evenodd" clip-rule="evenodd" d="M116.624 8.65123C116.611 8.57523 116.628 8.50663 116.676 8.44554C116.747 8.54191 116.73 8.6104 116.624 8.65123Z" fill="black"/>
<path opacity="0.01" fill-rule="evenodd" clip-rule="evenodd" d="M117.241 8.54838C117.165 8.56185 117.096 8.54467 117.036 8.49695C117.132 8.42579 117.2 8.44296 117.241 8.54838Z" fill="black"/>
<path opacity="0.01" fill-rule="evenodd" clip-rule="evenodd" d="M117.447 8.65121C117.345 8.6689 117.276 8.63455 117.241 8.54837C117.387 8.39092 117.456 8.42517 117.447 8.65121Z" fill="black"/>
<path opacity="0.01" fill-rule="evenodd" clip-rule="evenodd" d="M165.475 8.54839C165.611 8.61698 165.611 8.61698 165.475 8.54839Z" fill="black"/>
<path opacity="0.01" fill-rule="evenodd" clip-rule="evenodd" d="M116.624 8.65123C116.555 8.71983 116.555 8.71983 116.624 8.65123Z" fill="black"/>
<path opacity="0.01" fill-rule="evenodd" clip-rule="evenodd" d="M116.83 8.65123C116.967 8.71983 116.967 8.71983 116.83 8.65123Z" fill="black"/>
<path opacity="0.01" fill-rule="evenodd" clip-rule="evenodd" d="M117.036 8.65123C117.172 8.71983 117.172 8.71983 117.036 8.65123Z" fill="black"/>
<path opacity="0.01" fill-rule="evenodd" clip-rule="evenodd" d="M117.447 8.75407C117.447 8.71983 117.447 8.68548 117.447 8.65123C117.516 8.65123 117.584 8.65123 117.653 8.65123C117.618 8.73741 117.549 8.77176 117.447 8.75407Z" fill="black"/>
<path opacity="0.01" fill-rule="evenodd" clip-rule="evenodd" d="M117.447 8.75406C117.378 8.82266 117.378 8.82266 117.447 8.75406Z" fill="black"/>
<path opacity="0.01" fill-rule="evenodd" clip-rule="evenodd" d="M116.521 8.8569C116.658 8.9255 116.658 8.9255 116.521 8.8569Z" fill="black"/>
<path opacity="0.01" fill-rule="evenodd" clip-rule="evenodd" d="M117.344 8.95975C117.481 9.02834 117.481 9.02834 117.344 8.95975Z" fill="black"/>
<path opacity="0.01" fill-rule="evenodd" clip-rule="evenodd" d="M116.727 9.06259C116.864 9.13119 116.864 9.13119 116.727 9.06259Z" fill="black"/>
<path opacity="0.01" fill-rule="evenodd" clip-rule="evenodd" d="M116.933 9.06259C117.039 9.10342 117.055 9.17191 116.984 9.26828C116.937 9.20719 116.919 9.13859 116.933 9.06259Z" fill="black"/>
<path opacity="0.01" fill-rule="evenodd" clip-rule="evenodd" d="M116.727 9.16544C116.727 9.19968 116.727 9.23403 116.727 9.26828C116.658 9.21881 116.658 9.18446 116.727 9.16544Z" fill="black"/>
<path opacity="0.01" fill-rule="evenodd" clip-rule="evenodd" d="M116.727 9.26828C116.864 9.33688 116.864 9.33688 116.727 9.26828Z" fill="black"/>
<path opacity="0.01" fill-rule="evenodd" clip-rule="evenodd" d="M117.447 9.26828C117.584 9.33688 117.584 9.33688 117.447 9.26828Z" fill="black"/>
<path opacity="0.01" fill-rule="evenodd" clip-rule="evenodd" d="M117.036 9.37112C117.172 9.43972 117.172 9.43972 117.036 9.37112Z" fill="black"/>
<path opacity="0.01" fill-rule="evenodd" clip-rule="evenodd" d="M116.624 9.57682C116.665 9.4714 116.733 9.45423 116.83 9.5254C116.769 9.57312 116.7 9.59029 116.624 9.57682Z" fill="black"/>
<path opacity="0.01" fill-rule="evenodd" clip-rule="evenodd" d="M117.036 9.47397C117.036 9.54256 117.036 9.61106 117.036 9.67965C116.899 9.61106 116.899 9.54256 117.036 9.47397Z" fill="black"/>
<path opacity="0.01" fill-rule="evenodd" clip-rule="evenodd" d="M117.344 9.57681C117.404 9.44589 117.472 9.44589 117.55 9.57681C117.501 9.67585 117.433 9.67585 117.344 9.57681Z" fill="black"/>
<path opacity="0.01" fill-rule="evenodd" clip-rule="evenodd" d="M117.036 9.67966C117.172 9.74825 117.172 9.74825 117.036 9.67966Z" fill="black"/>
<path opacity="0.01" fill-rule="evenodd" clip-rule="evenodd" d="M116.521 9.7825C116.658 9.8511 116.658 9.8511 116.521 9.7825Z" fill="black"/>
<path opacity="0.01" fill-rule="evenodd" clip-rule="evenodd" d="M116.83 9.7825C116.967 9.8511 116.967 9.8511 116.83 9.7825Z" fill="black"/>
<path opacity="0.01" fill-rule="evenodd" clip-rule="evenodd" d="M117.447 9.88534C117.371 9.89881 117.302 9.88163 117.241 9.83391C117.338 9.76275 117.406 9.77992 117.447 9.88534Z" fill="black"/>
<path opacity="0.01" fill-rule="evenodd" clip-rule="evenodd" d="M116.83 9.88535C116.761 9.95394 116.761 9.95394 116.83 9.88535Z" fill="black"/>
<path opacity="0.01" fill-rule="evenodd" clip-rule="evenodd" d="M117.138 10.2967C117.125 10.2207 117.143 10.1521 117.19 10.091C117.261 10.1874 117.244 10.2559 117.138 10.2967Z" fill="black"/>
<path opacity="0.01" fill-rule="evenodd" clip-rule="evenodd" d="M164.961 10.1939C165.066 10.2347 165.083 10.3032 165.012 10.3995C164.965 10.3385 164.947 10.2699 164.961 10.1939Z" fill="black"/>
<path opacity="0.01" fill-rule="evenodd" clip-rule="evenodd" d="M117.138 10.2967C117.152 10.3727 117.134 10.4413 117.087 10.5024C117.016 10.406 117.032 10.3375 117.138 10.2967Z" fill="black"/>
<path opacity="0.01" fill-rule="evenodd" clip-rule="evenodd" d="M117.55 10.2967C117.687 10.3653 117.687 10.3653 117.55 10.2967Z" fill="black"/>
<path opacity="0.01" fill-rule="evenodd" clip-rule="evenodd" d="M117.241 10.3996C117.378 10.4682 117.378 10.4682 117.241 10.3996Z" fill="black"/>
<path opacity="0.01" fill-rule="evenodd" clip-rule="evenodd" d="M117.55 10.3996C117.481 10.4682 117.481 10.4682 117.55 10.3996Z" fill="black"/>
<path opacity="0.01" fill-rule="evenodd" clip-rule="evenodd" d="M116.624 10.5024C116.761 10.571 116.761 10.571 116.624 10.5024Z" fill="black"/>
<path opacity="0.01" fill-rule="evenodd" clip-rule="evenodd" d="M164.343 10.5024C164.48 10.571 164.48 10.571 164.343 10.5024Z" fill="black"/>
<path opacity="0.01" fill-rule="evenodd" clip-rule="evenodd" d="M164.652 10.5024C164.789 10.571 164.789 10.571 164.652 10.5024Z" fill="black"/>
<path opacity="0.01" fill-rule="evenodd" clip-rule="evenodd" d="M116.933 10.6052C117.07 10.6738 117.07 10.6738 116.933 10.6052Z" fill="black"/>
<path opacity="0.01" fill-rule="evenodd" clip-rule="evenodd" d="M117.138 10.6052C117.244 10.6461 117.261 10.7146 117.19 10.8109C117.143 10.7498 117.125 10.6812 117.138 10.6052Z" fill="black"/>
<path opacity="0.01" fill-rule="evenodd" clip-rule="evenodd" d="M116.521 10.7081C116.658 10.7767 116.658 10.7767 116.521 10.7081Z" fill="black"/>
<path opacity="0.01" fill-rule="evenodd" clip-rule="evenodd" d="M117.447 10.8109C117.378 10.6738 117.378 10.6738 117.447 10.8109Z" fill="black"/>
<path opacity="0.01" fill-rule="evenodd" clip-rule="evenodd" d="M164.035 10.7081C164.172 10.7767 164.172 10.7767 164.035 10.7081Z" fill="black"/>
<path opacity="0.01" fill-rule="evenodd" clip-rule="evenodd" d="M117.447 10.8109C117.481 10.8109 117.516 10.8109 117.55 10.8109C117.516 11.0852 117.481 11.0852 117.447 10.8109Z" fill="black"/>
<path opacity="0.01" fill-rule="evenodd" clip-rule="evenodd" d="M117.036 11.1195C117.172 11.1881 117.172 11.1881 117.036 11.1195Z" fill="black"/>
<path opacity="0.01" fill-rule="evenodd" clip-rule="evenodd" d="M163.006 11.1195C163.143 11.1881 163.143 11.1881 163.006 11.1195Z" fill="black"/>
<path opacity="0.01" fill-rule="evenodd" clip-rule="evenodd" d="M117.344 11.2223C117.481 11.2909 117.481 11.2909 117.344 11.2223Z" fill="black"/>
<path opacity="0.01" fill-rule="evenodd" clip-rule="evenodd" d="M162.184 11.2223C162.32 11.2909 162.32 11.2909 162.184 11.2223Z" fill="black"/>
<path opacity="0.01" fill-rule="evenodd" clip-rule="evenodd" d="M116.624 11.3251C116.761 11.3937 116.761 11.3937 116.624 11.3251Z" fill="black"/>
<path opacity="0.01" fill-rule="evenodd" clip-rule="evenodd" d="M116.83 11.3251C116.967 11.3937 116.967 11.3937 116.83 11.3251Z" fill="black"/>
<path opacity="0.01" fill-rule="evenodd" clip-rule="evenodd" d="M117.55 11.428C117.687 11.4966 117.687 11.4966 117.55 11.428Z" fill="black"/>
<path opacity="0.01" fill-rule="evenodd" clip-rule="evenodd" d="M117.344 11.5308C117.481 11.5994 117.481 11.5994 117.344 11.5308Z" fill="black"/>
<path opacity="0.01" fill-rule="evenodd" clip-rule="evenodd" d="M162.492 11.5308C162.629 11.5994 162.629 11.5994 162.492 11.5308Z" fill="black"/>
<path opacity="0.01" fill-rule="evenodd" clip-rule="evenodd" d="M116.727 11.7365C116.658 11.5994 116.658 11.5994 116.727 11.7365Z" fill="black"/>
<path opacity="0.01" fill-rule="evenodd" clip-rule="evenodd" d="M117.138 11.6337C117.244 11.6745 117.261 11.743 117.19 11.8394C117.143 11.7783 117.125 11.7097 117.138 11.6337Z" fill="black"/>
<path opacity="0.01" fill-rule="evenodd" clip-rule="evenodd" d="M116.624 11.7365C116.638 11.8125 116.62 11.8811 116.573 11.9422C116.502 11.8458 116.518 11.7773 116.624 11.7365Z" fill="black"/>
<path opacity="0.01" fill-rule="evenodd" clip-rule="evenodd" d="M116.727 11.7365C116.864 11.8051 116.864 11.8051 116.727 11.7365Z" fill="black"/>
<path opacity="0.01" fill-rule="evenodd" clip-rule="evenodd" d="M116.933 11.7365C117.07 11.8051 117.07 11.8051 116.933 11.7365Z" fill="black"/>
<path opacity="0.01" fill-rule="evenodd" clip-rule="evenodd" d="M117.55 11.9422C117.687 12.0108 117.687 12.0108 117.55 11.9422Z" fill="black"/>
<path opacity="0.01" fill-rule="evenodd" clip-rule="evenodd" d="M117.036 12.045C117.172 12.1136 117.172 12.1136 117.036 12.045Z" fill="black"/>
<path opacity="0.01" fill-rule="evenodd" clip-rule="evenodd" d="M117.55 12.4564C117.687 12.525 117.687 12.525 117.55 12.4564Z" fill="black"/>
<path opacity="0.01" fill-rule="evenodd" clip-rule="evenodd" d="M117.241 12.5593C117.378 12.6279 117.378 12.6279 117.241 12.5593Z" fill="black"/>
<path opacity="0.01" fill-rule="evenodd" clip-rule="evenodd" d="M117.241 12.6621C117.172 12.7307 117.172 12.7307 117.241 12.6621Z" fill="black"/>
<path opacity="0.01" fill-rule="evenodd" clip-rule="evenodd" d="M116.521 13.0735C116.658 13.1421 116.658 13.1421 116.521 13.0735Z" fill="black"/>
<path opacity="0.01" fill-rule="evenodd" clip-rule="evenodd" d="M116.727 13.1763C116.864 13.2449 116.864 13.2449 116.727 13.1763Z" fill="black"/>
<path opacity="0.01" fill-rule="evenodd" clip-rule="evenodd" d="M116.521 13.2792C116.658 13.3478 116.658 13.3478 116.521 13.2792Z" fill="black"/>
<path opacity="0.01" fill-rule="evenodd" clip-rule="evenodd" d="M116.521 13.5877C116.658 13.6563 116.658 13.6563 116.521 13.5877Z" fill="black"/>
<path opacity="0.01" fill-rule="evenodd" clip-rule="evenodd" d="M116.933 13.5877C117.07 13.6563 117.07 13.6563 116.933 13.5877Z" fill="black"/>
<path opacity="0.01" fill-rule="evenodd" clip-rule="evenodd" d="M117.241 13.5877C117.378 13.6563 117.378 13.6563 117.241 13.5877Z" fill="black"/>
<path opacity="0.01" fill-rule="evenodd" clip-rule="evenodd" d="M117.447 13.5877C117.553 13.6285 117.569 13.697 117.498 13.7934C117.451 13.7323 117.433 13.6637 117.447 13.5877Z" fill="black"/>
<path opacity="0.01" fill-rule="evenodd" clip-rule="evenodd" d="M116.83 13.9991C116.967 14.0677 116.967 14.0677 116.83 13.9991Z" fill="black"/>
<path opacity="0.01" fill-rule="evenodd" clip-rule="evenodd" d="M116.624 14.3076C116.555 14.1705 116.555 14.1705 116.624 14.3076Z" fill="black"/>
<path opacity="0.01" fill-rule="evenodd" clip-rule="evenodd" d="M116.624 14.3076C116.761 14.3762 116.761 14.3762 116.624 14.3076Z" fill="black"/>
<path opacity="0.982" fill-rule="evenodd" clip-rule="evenodd" d="M87.6224 14.5133C90.3735 14.4416 93.1163 14.5616 95.8499 14.8732C96.4011 14.8727 96.7611 15.1298 96.9297 15.6446C96.9986 17.2558 96.9986 18.8669 96.9297 20.4782C96.8444 20.6325 96.724 20.7525 96.5698 20.8381C94.7176 20.8484 92.8664 20.797 91.0162 20.6839C89.2278 20.6803 87.4795 20.9374 85.7712 21.4552C85.4884 21.5707 85.2313 21.725 84.9999 21.918C84.966 29.5284 84.931 37.1388 84.8971 44.7492C84.7089 44.9034 84.5196 45.0577 84.3314 45.212C82.1375 45.2809 79.9434 45.2809 77.7495 45.212C77.5952 45.0577 77.4409 44.9034 77.2867 44.7492C77.2181 35.8018 77.2181 26.8545 77.2867 17.9071C77.3054 17.6268 77.3568 17.3525 77.4409 17.0844C77.6973 16.8704 77.9715 16.6818 78.2637 16.5187C81.2951 15.3747 84.4147 14.7062 87.6224 14.5133Z" fill="black"/>
<path opacity="0.01" fill-rule="evenodd" clip-rule="evenodd" d="M117.55 14.5133C117.687 14.5819 117.687 14.5819 117.55 14.5133Z" fill="black"/>
<path opacity="0.01" fill-rule="evenodd" clip-rule="evenodd" d="M116.624 14.9247C116.611 14.8487 116.628 14.7801 116.676 14.719C116.747 14.8153 116.73 14.8838 116.624 14.9247Z" fill="black"/>
<path opacity="0.98" fill-rule="evenodd" clip-rule="evenodd" d="M102.535 14.8218C104.763 14.8046 106.992 14.8218 109.219 14.8732C109.374 15.0275 109.528 15.1818 109.682 15.336C109.751 25.1401 109.751 34.9451 109.682 44.7492C109.522 44.9405 109.334 45.0947 109.117 45.212C106.886 45.3004 104.657 45.2665 102.432 45.1091C102.245 44.924 102.125 44.7008 102.072 44.4406C102.003 34.8423 102.003 25.2429 102.072 15.6446C102.098 15.2841 102.252 15.0099 102.535 14.8218Z" fill="black"/>
<path opacity="0.01" fill-rule="evenodd" clip-rule="evenodd" d="M117.241 14.8218C117.378 14.8904 117.378 14.8904 117.241 14.8218Z" fill="black"/>
<path opacity="0.985" fill-rule="evenodd" clip-rule="evenodd" d="M151.796 14.8218C157.457 14.788 163.113 14.8222 168.766 14.9247C168.834 15.0275 168.902 15.1303 168.971 15.2332C169.092 17.0148 169.108 18.7974 169.023 20.581C168.868 20.8039 168.68 20.9924 168.457 21.1467C166.057 21.1893 163.657 21.2408 161.258 21.3009C161.208 26.2096 161.259 31.1111 161.412 36.0075C162.099 37.9883 163.488 39.0681 165.577 39.2471C166.949 39.3036 168.32 39.3715 169.691 39.4527C169.777 39.5381 169.863 39.6245 169.948 39.7099C170.017 41.5271 170.017 43.3433 169.948 45.1605C169.826 45.2696 169.774 45.4074 169.794 45.5719C167.531 45.5894 165.269 45.5719 163.006 45.5205C162.273 45.2634 161.518 45.0577 160.744 44.9034C155.694 43.2261 153.312 39.7129 153.596 34.362C153.579 30.0076 153.527 25.6543 153.442 21.3009C152.933 21.2204 152.419 21.169 151.899 21.1467C151.681 21.0313 151.492 20.877 151.334 20.6839C151.265 18.9013 151.265 17.1186 151.334 15.336C151.51 15.178 151.664 15.0065 151.796 14.8218Z" fill="black"/>
<path opacity="0.01" fill-rule="evenodd" clip-rule="evenodd" d="M116.624 14.9247C116.555 14.9932 116.555 14.9932 116.624 14.9247Z" fill="black"/>
<path opacity="0.01" fill-rule="evenodd" clip-rule="evenodd" d="M116.521 16.8787C116.658 16.9473 116.658 16.9473 116.521 16.8787Z" fill="black"/>
<path opacity="0.01" fill-rule="evenodd" clip-rule="evenodd" d="M151.077 17.9071C151.213 17.9757 151.213 17.9757 151.077 17.9071Z" fill="black"/>
<path opacity="0.01" fill-rule="evenodd" clip-rule="evenodd" d="M135.239 22.0208C135.14 21.9321 135.14 21.8635 135.239 21.8151C135.369 21.893 135.369 21.9615 135.239 22.0208Z" fill="black"/>
<path opacity="0.01" fill-rule="evenodd" clip-rule="evenodd" d="M135.856 22.0208C135.796 22.1517 135.728 22.1517 135.65 22.0208C135.698 21.9218 135.767 21.9218 135.856 22.0208Z" fill="black"/>
<path opacity="0.01" fill-rule="evenodd" clip-rule="evenodd" d="M135.445 22.2265C135.621 22.3065 135.793 22.3408 135.959 22.3294C136.09 22.4439 136.09 22.5468 135.959 22.6379C135.959 22.7065 135.959 22.775 135.959 22.8436C136.051 22.9165 136.086 23.0194 136.062 23.1521C135.783 23.2457 135.56 23.1428 135.393 22.8436C135.172 22.6149 135.223 22.4606 135.547 22.3808C135.49 22.3414 135.456 22.29 135.445 22.2265Z" fill="black"/>
</svg>
