<svg width="36" height="36" viewBox="0 0 36 36" fill="none" xmlns="http://www.w3.org/2000/svg">
<circle cx="18" cy="18" r="18" fill="#EDB900"/>
<path d="M20.8665 16.8802L24.75 8.08337L20.8665 16.8802ZM15.7043 17.0754L11.2084 8.08337L15.7043 17.0754ZM19.2933 16.4666L15.2032 8.08337L19.2933 16.4666ZM20.9584 8.08337L19.875 10.6875L20.9584 8.08337ZM12.25 22.6667C12.25 26.1185 15.0483 28.9167 18.5 28.9167C21.9518 28.9167 24.75 26.1185 24.75 22.6667C24.75 19.2149 21.9518 16.4167 18.5 16.4167C15.0483 16.4167 12.25 19.2149 12.25 22.6667Z" stroke="white" stroke-width="1.5" stroke-linecap="round" stroke-linejoin="round"/>
<path d="M16.9375 21.625L19.0208 20.0625V25.2708" stroke="white" stroke-width="1.5" stroke-linecap="round" stroke-linejoin="round"/>
</svg>
